name Walk9.mot
datacolumns 19
datarows 30
range 1.18600000 1.21500000
endheader

                time	   L_ground_force_vx	   L_ground_force_vy	   L_ground_force_vz	   L_ground_force_px	   L_ground_force_py	   L_ground_force_pz	   R_ground_force_vx	   R_ground_force_vy	   R_ground_force_vz	   R_ground_force_px	   R_ground_force_py	   R_ground_force_pz	   L_ground_torque_x	   L_ground_torque_y	   L_ground_torque_z	   R_ground_torque_x	   R_ground_torque_y	   R_ground_torque_z	
          1.18600000	          0.00000000	          0.00000000	          0.00000000	          0.00000000	          0.00000000	          0.00000000	          0.00000000	          0.00000000	          0.00000000	          0.00000000	          0.00000000	          0.00000000	          0.00000000	          0.00000000	          0.00000000	          0.00000000	          0.00000000	          0.00000000	
          1.18700000	          0.00000000	          0.00000000	          0.00000000	          0.00000000	          0.00000000	          0.00000000	          0.00000000	          0.00000000	          0.00000000	          0.00000000	          0.00000000	          0.00000000	          0.00000000	          0.00000000	          0.00000000	          0.00000000	          0.00000000	          0.00000000	
          1.18800000	          0.00000000	          0.00000000	          0.00000000	          0.00000000	          0.00000000	          0.00000000	          2.14132284	          9.38730128	         -2.92215748	         -0.33964042	          0.00000000	         -0.03721681	          0.00000000	          0.00000000	          0.00000000	          0.00000000	          0.02226640	          0.00000000	
          1.18900000	          0.00000000	          0.00000000	          0.00000000	          0.00000000	          0.00000000	          0.00000000	          3.66142376	         18.74864025	         -4.89551801	         -0.33712711	          0.00000000	         -0.04014074	          0.00000000	          0.00000000	          0.00000000	          0.00000000	          0.03933085	          0.00000000	
          1.19000000	          0.00000000	          0.00000000	          0.00000000	          0.00000000	          0.00000000	          0.00000000	          5.42168256	         32.12013780	         -7.08228654	         -0.33526177	          0.00000000	         -0.04190309	          0.00000000	          0.00000000	          0.00000000	          0.00000000	          0.06352072	          0.00000000	
          1.19100000	          0.00000000	          0.00000000	          0.00000000	          0.00000000	          0.00000000	          0.00000000	          7.37531445	         50.34874974	         -9.33315156	         -0.33364880	          0.00000000	         -0.04285738	          0.00000000	          0.00000000	          0.00000000	          0.00000000	          0.09321295	          0.00000000	
          1.19200000	          0.00000000	          0.00000000	          0.00000000	          0.00000000	          0.00000000	          0.00000000	          9.51583280	         74.22811733	        -11.56580013	         -0.33229643	          0.00000000	         -0.04329606	          0.00000000	          0.00000000	          0.00000000	          0.00000000	          0.12498971	          0.00000000	
          1.19300000	          0.00000000	          0.00000000	          0.00000000	          0.00000000	          0.00000000	          0.00000000	         11.80192860	        103.94952544	        -13.72946879	         -0.33128864	          0.00000000	         -0.04342677	          0.00000000	          0.00000000	          0.00000000	          0.00000000	          0.15717708	          0.00000000	
          1.19400000	          0.00000000	          0.00000000	          0.00000000	          0.00000000	          0.00000000	          0.00000000	         14.08100203	        138.45183161	        -15.75339425	         -0.33060456	          0.00000000	         -0.04328414	          0.00000000	          0.00000000	          0.00000000	          0.00000000	          0.19132283	          0.00000000	
          1.19500000	          0.00000000	          0.00000000	          0.00000000	          0.00000000	          0.00000000	          0.00000000	         16.08251703	        175.18486174	        -17.55987585	         -0.33012239	          0.00000000	         -0.04293146	          0.00000000	          0.00000000	          0.00000000	          0.00000000	          0.22923164	          0.00000000	
          1.19600000	          0.00000000	          0.00000000	          0.00000000	          0.00000000	          0.00000000	          0.00000000	         17.46470264	        210.55267219	        -19.11022018	         -0.32973853	          0.00000000	         -0.04253434	          0.00000000	          0.00000000	          0.00000000	          0.00000000	          0.27106525	          0.00000000	
          1.19700000	          0.00000000	          0.00000000	          0.00000000	          0.00000000	          0.00000000	          0.00000000	         17.88973959	        240.93143852	        -20.42459688	         -0.32940448	          0.00000000	         -0.04222339	          0.00000000	          0.00000000	          0.00000000	          0.00000000	          0.31500500	          0.00000000	
          1.19800000	          0.00000000	          0.00000000	          0.00000000	          0.00000000	          0.00000000	          0.00000000	         17.11760853	        263.74582714	        -21.56248963	         -0.32908214	          0.00000000	         -0.04202471	          0.00000000	          0.00000000	          0.00000000	          0.00000000	          0.35689538	          0.00000000	
          1.19900000	          0.00000000	          0.00000000	          0.00000000	          0.00000000	          0.00000000	          0.00000000	         15.09238029	        278.08659366	        -22.58926860	         -0.32872670	          0.00000000	         -0.04193009	          0.00000000	          0.00000000	          0.00000000	          0.00000000	          0.39320316	          0.00000000	
          1.20000000	          0.00000000	          0.00000000	          0.00000000	          0.00000000	          0.00000000	          0.00000000	         11.96635904	        284.70965792	        -23.54645831	         -0.32830558	          0.00000000	         -0.04195600	          0.00000000	          0.00000000	          0.00000000	          0.00000000	          0.42406272	          0.00000000	
          1.20100000	          0.00000000	          0.00000000	          0.00000000	          0.00000000	          0.00000000	          0.00000000	          8.04079863	        285.56925256	        -24.43652841	         -0.32781202	          0.00000000	         -0.04210766	          0.00000000	          0.00000000	          0.00000000	          0.00000000	          0.45167975	          0.00000000	
          1.20200000	          0.00000000	          0.00000000	          0.00000000	          0.00000000	          0.00000000	          0.00000000	          3.66548167	        283.13286964	        -25.23596005	         -0.32726466	          0.00000000	         -0.04232967	          0.00000000	          0.00000000	          0.00000000	          0.00000000	          0.47890626	          0.00000000	
          1.20300000	          0.00000000	          0.00000000	          0.00000000	          0.00000000	          0.00000000	          0.00000000	         -0.85372301	        279.73058418	        -25.92109589	         -0.32669340	          0.00000000	         -0.04252502	          0.00000000	          0.00000000	          0.00000000	          0.00000000	          0.50981867	          0.00000000	
          1.20400000	          0.00000000	          0.00000000	          0.00000000	          0.00000000	          0.00000000	          0.00000000	         -5.31397842	        277.13177011	        -26.47948842	         -0.32612179	          0.00000000	         -0.04261599	          0.00000000	          0.00000000	          0.00000000	          0.00000000	          0.54806610	          0.00000000	
          1.20500000	          0.00000000	          0.00000000	          0.00000000	          0.00000000	          0.00000000	          0.00000000	         -9.62834799	        276.37734175	        -26.91260933	         -0.32556837	          0.00000000	         -0.04258922	          0.00000000	          0.00000000	          0.00000000	          0.00000000	          0.59436277	          0.00000000	
          1.20600000	          0.00000000	          0.00000000	          0.00000000	          0.00000000	          0.00000000	          0.00000000	        -13.80302554	        277.79684188	        -27.23815562	         -0.32504556	          0.00000000	         -0.04249170	          0.00000000	          0.00000000	          0.00000000	          0.00000000	          0.64699739	          0.00000000	
          1.20700000	          0.00000000	          0.00000000	          0.00000000	          0.00000000	          0.00000000	          0.00000000	        -17.90442721	        281.15862486	        -27.48476175	         -0.32453616	          0.00000000	         -0.04238710	          0.00000000	          0.00000000	          0.00000000	          0.00000000	          0.70349581	          0.00000000	
          1.20800000	          0.00000000	          0.00000000	          0.00000000	          0.00000000	          0.00000000	          0.00000000	        -22.02430204	        285.90094467	        -27.68363947	         -0.32399666	          0.00000000	         -0.04231091	          0.00000000	          0.00000000	          0.00000000	          0.00000000	          0.76001917	          0.00000000	
          1.20900000	          0.00000000	          0.00000000	          0.00000000	          0.00000000	          0.00000000	          0.00000000	        -26.24419799	        291.37814645	        -27.86494228	         -0.32340563	          0.00000000	         -0.04225942	          0.00000000	          0.00000000	          0.00000000	          0.00000000	          0.81144904	          0.00000000	
          1.21000000	          0.00000000	          0.00000000	          0.00000000	          0.00000000	          0.00000000	          0.00000000	        -30.61298342	        297.04768657	        -28.05322184	         -0.32278645	          0.00000000	         -0.04222376	          0.00000000	          0.00000000	          0.00000000	          0.00000000	          0.85627916	          0.00000000	
          1.21100000	          0.00000000	          0.00000000	          0.00000000	          0.00000000	          0.00000000	          0.00000000	        -35.14587851	        302.53065366	        -28.26019861	         -0.32217230	          0.00000000	         -0.04221487	          0.00000000	          0.00000000	          0.00000000	          0.00000000	          0.89829683	          0.00000000	
          1.21200000	          0.00000000	          0.00000000	          0.00000000	          0.00000000	          0.00000000	          0.00000000	        -39.83374329	        307.57513810	        -28.48416121	         -0.32158079	          0.00000000	         -0.04225019	          0.00000000	          0.00000000	          0.00000000	          0.00000000	          0.93973477	          0.00000000	
          1.21300000	          0.00000000	          0.00000000	          0.00000000	          0.00000000	          0.00000000	          0.00000000	        -44.64642513	        312.02300730	        -28.71173800	         -0.32103170	          0.00000000	         -0.04232956	          0.00000000	          0.00000000	          0.00000000	          0.00000000	          0.97986743	          0.00000000	
          1.21400000	          0.00000000	          0.00000000	          0.00000000	          0.00000000	          0.00000000	          0.00000000	        -49.53465548	        315.81959996	        -28.91321602	         -0.32053286	          0.00000000	         -0.04241772	          0.00000000	          0.00000000	          0.00000000	          0.00000000	          1.02211637	          0.00000000	
          1.21500000	          0.00000000	          0.00000000	          0.00000000	          0.00000000	          0.00000000	          0.00000000	        -54.44108716	        319.03237060	        -29.04808250	         -0.32003939	          0.00000000	         -0.04246905	          0.00000000	          0.00000000	          0.00000000	          0.00000000	          1.07254709	          0.00000000	
